<?xml version="1.0" encoding="UTF-8" standalone="no"?>
<svg width="48px" height="48px" viewBox="0 0 48 48" version="1.1" xmlns="http://www.w3.org/2000/svg" xmlns:xlink="http://www.w3.org/1999/xlink">
    <!-- Generator: sketchtool 3.7.2 (28276) - http://www.bohemiancoding.com/sketch -->
    <title>0DEB5B63-4455-4D92-B6A9-31D2F67F94E1</title>
    <desc>Created with sketchtool.</desc>
    <defs></defs>
    <g id="Page-1" stroke="none" stroke-width="1" fill="none" fill-rule="evenodd">
        <g id="Register" transform="translate(-126.000000, -464.000000)">
            <g id="Button-Copy-2" transform="translate(125.000000, 288.000000)">
                <g id="shief" transform="translate(1.000000, 176.000000)">
                    <g id="icon_shield" transform="translate(8.000000, 8.000000)">
                        <path d="M0,0 L16.5,0 L16.5,34 C16.5,34 0,28 0,18 L0,0 Z M33,0 L16.5,0 L16.5,34 C16.5,34 33,28 33,18 L33,0 Z" id="Combined-Shape" fill="#5E5E5E"></path>
                        <path d="M14.1596452,22.1278529 C14.7928458,22.8114402 15.8919029,22.7495705 16.4443831,21.999237 L25.010776,10.3650615 C25.4969492,9.7047808 25.3558071,8.77539634 24.6955265,8.2892232 C24.0352458,7.80305005 23.1058613,7.94419209 22.6196882,8.60447277 L14.0532953,20.2386483 L16.3380332,20.1100324 L10.5738703,13.8871877 C10.0166645,13.2856424 9.07731126,13.2496982 8.47576602,13.8069039 C7.87422079,14.3641097 7.83827652,15.3034629 8.39548225,15.9050082 L14.1596452,22.1278529 Z" id="icon_check" fill="#EFEFEF"></path>
                    </g>
                </g>
            </g>
        </g>
    </g>
</svg>