<?xml version="1.0" encoding="UTF-8" standalone="no"?>
<svg width="24px" height="24px" viewBox="0 0 24 24" version="1.1" xmlns="http://www.w3.org/2000/svg" xmlns:xlink="http://www.w3.org/1999/xlink">
    <!-- Generator: sketchtool 3.7.2 (28276) - http://www.bohemiancoding.com/sketch -->
    <title>5917210F-BC38-465E-B410-393EA7622FE6</title>
    <desc>Created with sketchtool.</desc>
    <defs></defs>
    <g id="Page-1" stroke="none" stroke-width="1" fill="none" fill-rule="evenodd">
        <g id="Agent-Web-Icon" transform="translate(-939.000000, -99.000000)">
            <g id="icon_percent" transform="translate(939.000000, 99.000000)">
                <path d="M12,22 C17.5228475,22 22,17.5228475 22,12 C22,6.4771525 17.5228475,2 12,2 C6.4771525,2 2,6.4771525 2,12 C2,17.5228475 6.4771525,22 12,22 Z" id="Combined-Shape-Copy" fill="#5E5E5E"></path>
                <path d="M8.74599999,12.3158056 C10.117,12.3158056 11.0436944,11.2367778 11.0436944,9.92925 L11.0436944,9.90386111 C11.0436944,8.60902778 10.1423889,7.53 8.75869443,7.53 C7.36230554,7.53 6.46099999,8.60902778 6.46099999,9.91655556 L6.46099999,9.94194444 C6.46099999,11.2494722 7.37499999,12.3158056 8.74599999,12.3158056 L8.74599999,12.3158056 Z M14.687,16.67 C16.058,16.67 16.9846944,15.5782778 16.9846944,14.2834444 L16.9846944,14.2580556 C16.9846944,12.9505278 16.0833889,11.8841944 14.6996944,11.8841944 C13.3033055,11.8841944 12.402,12.9632222 12.402,14.27075 L12.402,14.2961389 C12.402,15.5909722 13.316,16.67 14.687,16.67 L14.687,16.67 Z M8.75869443,10.9194167 C8.33977777,10.9194167 8.00972221,10.5005 8.00972221,9.92925 L8.00972221,9.90386111 C8.00972221,9.34530556 8.30169443,8.92638889 8.74599999,8.92638889 C9.1776111,8.92638889 9.49497221,9.358 9.49497221,9.91655556 L9.49497221,9.94194444 C9.49497221,10.5005 9.19030554,10.9194167 8.75869443,10.9194167 L8.75869443,10.9194167 Z M14.6996944,15.2736111 C14.2807778,15.2736111 13.9507222,14.842 13.9507222,14.2834444 L13.9507222,14.2580556 C13.9507222,13.6868056 14.23,13.2805833 14.687,13.2805833 C15.1186111,13.2805833 15.4359722,13.6995 15.4359722,14.27075 L15.4359722,14.2961389 C15.4359722,14.8546944 15.1313055,15.2736111 14.6996944,15.2736111 L14.6996944,15.2736111 Z M11.1833333,11.75725 L7.43847221,16.5430556 L9.15222221,16.5430556 L12.1861944,12.5443056 L16.0072222,7.65694444 L14.2934722,7.65694444 L11.1833333,11.75725 Z" id="%-copy" fill="#F8F8F8"></path>
            </g>
        </g>
    </g>
</svg>