<?xml version="1.0" encoding="UTF-8" standalone="no"?>
<svg width="16px" height="25px" viewBox="0 0 16 25" version="1.1" xmlns="http://www.w3.org/2000/svg" xmlns:xlink="http://www.w3.org/1999/xlink">
    <!-- Generator: sketchtool 3.7.2 (28276) - http://www.bohemiancoding.com/sketch -->
    <title>2FE4D621-D3CF-4C82-9C62-F90FDA4D492C</title>
    <desc>Created with sketchtool.</desc>
    <defs></defs>
    <g id="Symbols" stroke="none" stroke-width="1" fill="none" fill-rule="evenodd">
        <g id="icon_arrow_next" fill="#D8A300">
            <g id="Group-3">
                <path d="M6.50552427,0.398718089 C6.50552427,-0.431127754 7.17132151,-1.10385073 8.00552427,-1.10385073 L8.00552427,-1.10385073 C8.8339514,-1.10385073 9.50552427,-0.426764804 9.50552427,0.398718089 L9.50552427,14.6656584 C9.50552427,15.4955042 8.83972704,16.1682272 8.00552427,16.1682272 L8.00552427,16.1682272 C7.17709715,16.1682272 6.50552427,15.4911413 6.50552427,14.6656584 L6.50552427,0.398718089 Z" id="searchlist_icon_next_normal" transform="translate(8.005524, 7.532188) scale(-1, 1) rotate(-135.000000) translate(-8.005524, -7.532188) "></path>
                <path d="M6.50552427,10.3987181 C6.50552427,9.56887225 7.17132151,8.89614927 8.00552427,8.89614927 L8.00552427,8.89614927 C8.8339514,8.89614927 9.50552427,9.5732352 9.50552427,10.3987181 L9.50552427,24.6656584 C9.50552427,25.4955042 8.83972704,26.1682272 8.00552427,26.1682272 L8.00552427,26.1682272 C7.17709715,26.1682272 6.50552427,25.4911413 6.50552427,24.6656584 L6.50552427,10.3987181 Z" id="searchlist_icon_next_normal-copy" transform="translate(8.005524, 17.532188) scale(-1, -1) rotate(225.000000) translate(-8.005524, -17.532188) "></path>
            </g>
        </g>
    </g>
</svg>