<?xml version="1.0" encoding="UTF-8" standalone="no"?>
<svg width="48px" height="48px" viewBox="0 0 48 48" version="1.1" xmlns="http://www.w3.org/2000/svg" xmlns:xlink="http://www.w3.org/1999/xlink">
    <!-- Generator: sketchtool 3.7.2 (28276) - http://www.bohemiancoding.com/sketch -->
    <title>08B7935E-E073-4D5F-9E6A-319E115CAEB6</title>
    <desc>Created with sketchtool.</desc>
    <defs></defs>
    <g id="Page-1" stroke="none" stroke-width="1" fill="none" fill-rule="evenodd">
        <g id="Mobile-Web-Icons" transform="translate(-888.000000, -180.000000)" fill="#D8A300">
            <g id="Group-10" transform="translate(888.000000, 180.000000)">
                <g id="icon_market_on">
                    <g id="ic_assessment">
                        <path d="M38,6 L10,6 C7.8,6 6,7.8 6,10 L6,38 C6,40.2 7.8,42 10,42 L38,42 C40.2,42 42,40.2 42,38 L42,10 C42,7.8 40.2,6 38,6 L38,6 Z M18,34 L14,34 L14,20 L18,20 L18,34 L18,34 Z M26,34 L22,34 L22,14 L26,14 L26,34 L26,34 Z M34,34 L30,34 L30,26 L34,26 L34,34 L34,34 Z" id="Shape"></path>
                    </g>
                </g>
            </g>
        </g>
    </g>
</svg>