<?xml version="1.0" encoding="UTF-8" standalone="no"?>
<svg width="48px" height="48px" viewBox="0 0 48 48" version="1.1" xmlns="http://www.w3.org/2000/svg" xmlns:xlink="http://www.w3.org/1999/xlink">
    <!-- Generator: sketchtool 3.7.2 (28276) - http://www.bohemiancoding.com/sketch -->
    <title>84F00F4D-038F-4AFB-89A7-26FE8C406557</title>
    <desc>Created with sketchtool.</desc>
    <defs></defs>
    <g id="Page-1" stroke="none" stroke-width="1" fill="none" fill-rule="evenodd">
        <g id="Mobile-Web-Icons" transform="translate(-800.000000, -526.000000)" fill="#5E5E5E">
            <g id="Group-7" transform="translate(800.000000, 526.000000)">
                <g id="icon_sale">
                    <g transform="translate(4.000000, 4.000000)" id="Combined-Shape">
                        <path d="M39.2155707,18.1771909 L38.4065008,17.4039658 C37.3593184,16.4003094 36.8318867,14.4390828 37.2389821,13.0462534 L37.5539049,11.9734676 C37.9610002,10.5806383 37.1391285,9.15708476 35.7283767,8.81399812 L34.6453495,8.55028228 C33.2345977,8.20719564 31.7982425,6.77084039 31.4525955,5.36008862 L31.1863193,4.27450105 C30.8406723,2.86374928 29.4196791,2.04187756 28.0242895,2.4489729 L26.954064,2.76389571 C25.5586743,3.17099105 23.5974477,2.6461197 22.5963516,1.59381665 L21.8231265,0.787307022 C20.8194701,-0.262435674 19.178287,-0.262435674 18.1746306,0.787307022 L17.4039658,1.59381665 C16.4003094,2.64355935 14.4390828,3.1684307 13.0462534,2.76389571 L11.976028,2.4489729 C10.5831986,2.04187756 9.15964511,2.86374928 8.81655847,4.27450105 L8.54772193,5.36008862 C8.20463529,6.77084039 6.76828004,8.20719564 5.35752827,8.55028228 L4.26938035,8.81399812 C2.85862859,9.15708476 2.03931721,10.5780779 2.44641255,11.9734676 L2.76133536,13.0462534 C3.1684307,14.4390828 2.64355935,16.4028697 1.59381665,17.4039658 L0.787307022,18.1771909 C-0.262435674,19.1808473 -0.262435674,20.8220304 0.787307022,21.8256869 L1.59381665,22.5963516 C2.64355935,23.600008 3.1684307,25.5586743 2.76133536,26.9515036 L2.44641255,28.0294102 C2.03931721,29.4222395 2.85862859,30.845793 4.26938035,31.1863193 L5.35496792,31.4525955 C6.76571969,31.7956821 8.20207494,33.2320374 8.54772193,34.6427891 L8.81143778,35.7258164 C9.15708476,37.1365681 10.5780779,37.9584399 11.9734676,37.5513445 L13.0436931,37.2364217 C14.4365224,36.8293264 16.4003094,37.3567581 17.4014054,38.4065008 L18.1720702,39.21045 C19.1757266,40.2601927 20.8169097,40.2601927 21.8205662,39.21045 L22.5912309,38.4065008 C23.5948874,37.3567581 25.5535536,36.8293264 26.9489433,37.2364217 L28.0191688,37.5513445 C29.4145584,37.9584399 30.838112,37.1365681 31.1811986,35.7258164 L31.4474748,34.6427891 C31.7931218,33.2320374 33.229477,31.7956821 34.6402288,31.4500351 L35.723256,31.1863193 C37.1340078,30.8406723 37.9558795,29.4196791 37.5487842,28.0242895 L37.2338614,26.9515036 C36.826766,25.556114 37.3541977,23.5948874 38.4039404,22.5937913 L39.2078897,21.8231265 C40.2627531,20.8194701 40.2627531,19.178287 39.2155707,18.1771909 Z M18.8525556,30.254 L20.8535556,30.254 L20.8535556,27.977 C23.7745556,27.724 25.7525556,26.045 25.7525556,23.538 L25.7525556,23.492 C25.7525556,21.031 24.2575556,19.628 20.7615556,18.754 L20.7615556,14.384 C21.8425556,14.614 22.8775556,15.097 23.8895556,15.856 L25.1775556,13.694 C23.9125556,12.751 22.5325556,12.153 20.8535556,11.946 L20.8535556,10.566 L18.8525556,10.566 L18.8525556,11.9 C15.9775556,12.13 14.0225556,13.809 14.0225556,16.293 L14.0225556,16.339 C14.0225556,18.915 15.5865556,20.18 18.9445556,21.054 L18.9445556,25.562 C17.4495556,25.332 16.2075556,24.642 14.8965556,23.584 L13.4245556,25.677 C14.9885556,26.919 16.8515556,27.724 18.8525556,27.954 L18.8525556,30.254 Z M18.9445556,18.271 C17.1735556,17.742 16.7365556,17.121 16.7365556,16.178 L16.7365556,16.132 C16.7365556,15.12 17.4955556,14.338 18.9445556,14.223 L18.9445556,18.271 Z M20.7615556,25.654 L20.7615556,21.491 C22.5555556,22.02 23.0385556,22.641 23.0385556,23.653 L23.0385556,23.699 C23.0385556,24.803 22.2105556,25.539 20.7615556,25.654 Z"></path>
                    </g>
                </g>
            </g>
        </g>
    </g>
</svg>