<?xml version="1.0" encoding="UTF-8" standalone="no"?>
<svg width="26px" height="15px" viewBox="0 0 26 15" version="1.1" xmlns="http://www.w3.org/2000/svg" xmlns:xlink="http://www.w3.org/1999/xlink">
    <!-- Generator: sketchtool 3.7.2 (28276) - http://www.bohemiancoding.com/sketch -->
    <title>64BA0B2B-73AC-4277-855B-970B8933B514</title>
    <desc>Created with sketchtool.</desc>
    <defs></defs>
    <g id="Symbols" stroke="none" stroke-width="1" fill="none" fill-rule="evenodd">
        <g id="icon_arrow_down" fill="#D8A300">
            <g>
                <path d="M6.53218824,0.37205412 C6.53218824,-0.457791724 7.19798547,-1.1305147 8.03218824,-1.1305147 L8.03218824,-1.1305147 C8.86061537,-1.1305147 9.53218824,-0.453428773 9.53218824,0.37205412 L9.53218824,14.6389944 C9.53218824,15.4688403 8.86639101,16.1415632 8.03218824,16.1415632 L8.03218824,16.1415632 C7.20376112,16.1415632 6.53218824,15.4644773 6.53218824,14.6389944 L6.53218824,0.37205412 Z" id="searchlist_icon_next_normal" transform="translate(8.032188, 7.505524) scale(-1, -1) rotate(-225.000000) translate(-8.032188, -7.505524) "></path>
                <path d="M16.5321882,0.37205412 C16.5321882,-0.457791724 17.1979855,-1.1305147 18.0321882,-1.1305147 L18.0321882,-1.1305147 C18.8606154,-1.1305147 19.5321882,-0.453428773 19.5321882,0.37205412 L19.5321882,14.6389944 C19.5321882,15.4688403 18.866391,16.1415632 18.0321882,16.1415632 L18.0321882,16.1415632 C17.2037611,16.1415632 16.5321882,15.4644773 16.5321882,14.6389944 L16.5321882,0.37205412 Z" id="searchlist_icon_next_normal-copy" transform="translate(18.032188, 7.505524) scale(-1, 1) rotate(-45.000000) translate(-18.032188, -7.505524) "></path>
            </g>
        </g>
    </g>
</svg>