<?xml version="1.0" encoding="UTF-8" standalone="no"?>
<svg width="26px" height="15px" viewBox="0 0 26 15" version="1.1" xmlns="http://www.w3.org/2000/svg" xmlns:xlink="http://www.w3.org/1999/xlink">
    <!-- Generator: sketchtool 3.7.2 (28276) - http://www.bohemiancoding.com/sketch -->
    <title>E03294AD-4910-4168-960F-6CD2654E595F</title>
    <desc>Created with sketchtool.</desc>
    <defs></defs>
    <g id="Symbols" stroke="none" stroke-width="1" fill="none" fill-rule="evenodd">
        <g id="icon_arrow_up" fill="#D8A300">
            <g>
                <path d="M6.53218824,0.361005576 C6.53218824,-0.468840267 7.19798547,-1.14156324 8.03218824,-1.14156324 L8.03218824,-1.14156324 C8.86061537,-1.14156324 9.53218824,-0.464477317 9.53218824,0.361005576 L9.53218824,14.6279459 C9.53218824,15.4577917 8.86639101,16.1305147 8.03218824,16.1305147 L8.03218824,16.1305147 C7.20376112,16.1305147 6.53218824,15.4534288 6.53218824,14.6279459 L6.53218824,0.361005576 Z" id="searchlist_icon_next_normal" transform="translate(8.032188, 7.494476) scale(-1, 1) rotate(-225.000000) translate(-8.032188, -7.494476) "></path>
                <path d="M16.5321882,0.361005576 C16.5321882,-0.468840267 17.1979855,-1.14156324 18.0321882,-1.14156324 L18.0321882,-1.14156324 C18.8606154,-1.14156324 19.5321882,-0.464477317 19.5321882,0.361005576 L19.5321882,14.6279459 C19.5321882,15.4577917 18.866391,16.1305147 18.0321882,16.1305147 L18.0321882,16.1305147 C17.2037611,16.1305147 16.5321882,15.4534288 16.5321882,14.6279459 L16.5321882,0.361005576 Z" id="searchlist_icon_next_normal-copy" transform="translate(18.032188, 7.494476) scale(-1, -1) rotate(-45.000000) translate(-18.032188, -7.494476) "></path>
            </g>
        </g>
    </g>
</svg>