<?xml version="1.0" encoding="UTF-8" standalone="no"?>
<svg width="210px" height="203px" viewBox="0 0 210 203" version="1.1" xmlns="http://www.w3.org/2000/svg" xmlns:xlink="http://www.w3.org/1999/xlink">
    <!-- Generator: sketchtool 3.7.2 (28276) - http://www.bohemiancoding.com/sketch -->
    <title>81614B11-486A-42F7-8FFF-D13B1072AE8B</title>
    <desc>Created with sketchtool.</desc>
    <defs>
        <path d="M104.799265,0.0875888325 L0.185294118,101.031142 L15.6892647,115.991315 L31.1952941,101.031142 L104.799265,30.0099949 L178.400147,101.031142 L127.836471,149.817091 L143.340441,164.779325 L209.414265,101.031142 L104.799265,0.0875888325 L104.799265,0.0875888325 Z M19.4764706,119.642223 L104.799265,201.969543 L139.794118,168.200442 L124.291176,153.24336 L104.799265,172.049198 L34.9794118,104.68102 L19.4764706,119.642223 L19.4764706,119.642223 Z" id="path-1"></path>
    </defs>
    <g id="Page-1" stroke="none" stroke-width="1" fill="none" fill-rule="evenodd">
        <g id="Launcher-image" transform="translate(-270.000000, -509.000000)">
            <g id="logo" transform="translate(270.000000, 509.000000)">
                <polygon id="Fill-1" fill="#D9B766" points="39.1654118 100.966498 104.429088 37.9911583 119.716882 52.7431786 54.4532059 115.716458"></polygon>
                <polygon id="Fill-2" fill="#D9B766" points="109.03375 168.176089 39.1161029 100.972784 54.5438971 86.1506928 124.319485 153.426129"></polygon>
                <polygon id="Fill-3" fill="#D9B766" points="134.319603 96.0084552 84.3550441 144.384283 69.06725 129.634323 119.028721 81.2564349"></polygon>
                <polygon id="Fill-4" fill="#D9B766" points="154.426382 76.6385456 135.367853 95.1125761 120.079029 80.3605557 139.136529 61.8865253"></polygon>
                <g id="Group-7" transform="translate(0.000000, 0.211622)">
                    <mask id="mask-2" fill="white">
                        <use xlink:href="#path-1"></use>
                    </mask>
                    <g id="Clip-6"></g>
                    <path d="M104.799265,0.0875888325 L0.185294118,101.031142 L15.6892647,115.991315 L31.1952941,101.031142 L104.799265,30.0099949 L178.400147,101.031142 L127.836471,149.817091 L143.340441,164.779325 L209.414265,101.031142 L104.799265,0.0875888325 Z M19.4764706,119.642223 L104.799265,201.969543 L139.794118,168.200442 L124.291176,153.24336 L104.799265,172.049198 L34.9794118,104.68102 L19.4764706,119.642223 Z" id="Fill-5" mask="url(#mask-2)"></path>
                </g>
                <polygon id="Fill-8" fill="#C33F1F" points="104.799574 0.299519706 193.904426 116.203246 209.413544 101.243073"></polygon>
                <polygon id="Fill-9" fill="#D83F1B" points="104.799574 0.299519706 89.2935441 15.2617532 193.904426 116.203246"></polygon>
                <polygon id="Fill-10" fill="#D83F1B" points="0 100.743714 15.5039706 115.703886 89.2932353 15.2611349"></polygon>
                <polygon id="Fill-11" fill="#C33F1F" points="15.5039706 115.703371 89.2932353 15.2616502 104.799265 30.2207923"></polygon>
                <polygon id="Fill-12" fill="#C33F1F" points="143.341059 164.991153 178.400765 101.24194 193.904735 116.202112"></polygon>
                <polygon id="Fill-13" fill="#D83F1B" points="178.400353 101.242249 143.340647 164.991462 127.836676 150.029228"></polygon>
                <polygon id="Fill-14" fill="#D83F1B" points="104.799574 202.181165 139.794426 168.412063 124.290456 153.454982"></polygon>
                <polygon id="Fill-15" fill="#C33F1F" points="89.3302941 187.25541 104.799265 202.181577 124.291176 153.455394"></polygon>
                <polygon id="Fill-16" fill="#D83F1B" points="34.9799265 104.892539 89.3308088 187.255925 104.799779 172.297813"></polygon>
                <polygon id="Fill-17" fill="#C33F1F" points="89.3306029 187.255719 34.9797206 104.892333 19.47575 119.854566"></polygon>
                <polygon id="Fill-18" fill="#D83F1B" points="99.5362941 129.983751 119.029235 81.256538 134.533206 96.2167106"></polygon>
                <polygon id="Fill-19" fill="#C33F1F" points="119.029235 81.2564349 99.5362941 129.983648 84.0673235 115.059542"></polygon>
                <polygon id="Fill-20" fill="#D83F1B" points="120.078824 80.3608649 135.368676 95.1128852 153.665441 77.3735705"></polygon>
                <polygon id="Fill-21" fill="#C33F1F" points="120.078824 80.3608649 138.379706 62.6215502 153.578971 77.2911339"></polygon>
                <polygon id="Fill-22" fill="#D83F1B" points="54.5437941 86.1259618 108.819529 168.419277 124.290559 153.464256"></polygon>
                <polygon id="Fill-23" fill="#C33F1F" points="108.980426 168.909671 54.5441029 86.1258588 38.9639559 101.018021"></polygon>
                <polygon id="Fill-24" fill="#D83F1B" points="69.8301471 100.87994 104.429706 37.9911583 119.716471 52.7431786"></polygon>
                <polygon id="Fill-25" fill="#C33F1F" points="104.4295 37.9913644 69.8299412 100.880146 54.5442059 86.1260649"></polygon>
            </g>
        </g>
    </g>
</svg>